<svg width="99" height="14" fill="none" xmlns="http://www.w3.org/2000/svg"><path d="M5.592 13.296c-1.072 0-2.12-.128-3.144-.384C1.424 12.64.608 12.304 0 11.904l1.248-2.688c.576.368 1.272.672 2.088.912a9.042 9.042 0 002.4.336c1.584 0 2.376-.392 2.376-1.176 0-.368-.216-.632-.648-.792-.432-.16-1.096-.296-1.992-.408-1.056-.16-1.928-.344-2.616-.552a4.142 4.142 0 01-1.8-1.104C.56 5.904.312 5.152.312 4.176c0-.816.232-1.536.696-2.16.48-.64 1.168-1.136 2.064-1.488C3.984.176 5.056 0 6.288 0 7.2 0 8.104.104 9 .312c.912.192 1.664.464 2.256.816l-1.248 2.664a7.45 7.45 0 00-3.72-.96c-.8 0-1.4.112-1.8.336-.4.224-.6.512-.6.864 0 .4.216.68.648.84.432.16 1.12.312 2.064.456 1.056.176 1.92.368 2.592.576a3.802 3.802 0 011.752 1.08c.496.528.744 1.264.744 2.208 0 .8-.24 1.512-.72 2.136-.48.624-1.184 1.112-2.112 1.464-.912.336-2 .504-3.264.504zm14.646 0c-1.376 0-2.616-.28-3.72-.84-1.088-.576-1.944-1.368-2.568-2.376-.608-1.008-.912-2.152-.912-3.432 0-1.28.304-2.424.912-3.432A6.4 6.4 0 0116.518.864C17.622.288 18.862 0 20.238 0c1.36 0 2.544.288 3.552.864a4.98 4.98 0 012.232 2.424l-2.904 1.56c-.672-1.184-1.64-1.776-2.904-1.776-.976 0-1.784.32-2.424.96-.64.64-.96 1.512-.96 2.616s.32 1.976.96 2.616c.64.64 1.448.96 2.424.96 1.28 0 2.248-.592 2.904-1.776l2.904 1.584c-.464 1.024-1.208 1.824-2.232 2.4-1.008.576-2.192.864-3.552.864zm11.516-11.4c.448-.624 1.048-1.096 1.8-1.416.768-.32 1.648-.48 2.64-.48v3.456a13.512 13.512 0 00-.84-.048c-1.072 0-1.912.304-2.52.912-.608.592-.912 1.488-.912 2.688v6.096h-3.744V.192h3.576v1.704z" fill="#fff"/><path d="M51.162 6.696c0 .048-.024.384-.072 1.008h-9.768c.176.8.592 1.432 1.248 1.896.656.464 1.472.696 2.448.696.672 0 1.264-.096 1.776-.288a4.46 4.46 0 001.464-.96l1.992 2.16c-1.216 1.392-2.992 2.088-5.328 2.088-1.456 0-2.744-.28-3.864-.84-1.12-.576-1.984-1.368-2.592-2.376-.608-1.008-.912-2.152-.912-3.432 0-1.264.296-2.4.888-3.408A6.3 6.3 0 0140.914.864C41.97.288 43.146 0 44.442 0c1.264 0 2.408.272 3.432.816a5.857 5.857 0 012.4 2.352c.592 1.008.888 2.184.888 3.528zm-6.696-3.864c-.848 0-1.56.24-2.136.72-.576.48-.928 1.136-1.056 1.968h6.36c-.128-.816-.48-1.464-1.056-1.944-.576-.496-1.28-.744-2.112-.744zm21.836 3.864c0 .048-.024.384-.072 1.008h-9.768c.176.8.592 1.432 1.248 1.896.656.464 1.472.696 2.448.696.672 0 1.264-.096 1.776-.288a4.46 4.46 0 001.464-.96l1.992 2.16c-1.216 1.392-2.992 2.088-5.328 2.088-1.456 0-2.744-.28-3.864-.84-1.12-.576-1.984-1.368-2.592-2.376-.608-1.008-.912-2.152-.912-3.432 0-1.264.296-2.4.888-3.408A6.3 6.3 0 0156.054.864C57.11.288 58.286 0 59.582 0c1.264 0 2.408.272 3.432.816a5.857 5.857 0 012.4 2.352c.592 1.008.888 2.184.888 3.528zm-6.696-3.864c-.848 0-1.56.24-2.136.72-.576.48-.928 1.136-1.056 1.968h6.36c-.128-.816-.48-1.464-1.056-1.944-.576-.496-1.28-.744-2.112-.744z" fill="#006AFF"/><path d="M76.643 0c1.6 0 2.888.48 3.864 1.44.992.96 1.488 2.384 1.488 4.272v7.392H78.25V6.288c0-1.024-.224-1.784-.672-2.28-.448-.512-1.096-.768-1.944-.768-.944 0-1.696.296-2.256.888-.56.576-.84 1.44-.84 2.592v6.384h-3.744V.192h3.576v1.512A4.847 4.847 0 0174.219.456C74.955.152 75.763 0 76.643 0zm15.03 13.296c-1.36 0-2.584-.28-3.672-.84a6.439 6.439 0 01-2.52-2.376c-.608-1.008-.912-2.152-.912-3.432 0-1.28.304-2.424.912-3.432a6.27 6.27 0 012.52-2.352C89.09.288 90.313 0 91.673 0c1.36 0 2.576.288 3.648.864a6.27 6.27 0 012.52 2.352c.608 1.008.912 2.152.912 3.432 0 1.28-.304 2.424-.912 3.432a6.438 6.438 0 01-2.52 2.376c-1.072.56-2.288.84-3.648.84zm0-3.072c.96 0 1.744-.32 2.352-.96.624-.656.936-1.528.936-2.616s-.312-1.952-.936-2.592c-.608-.656-1.392-.984-2.352-.984s-1.752.328-2.376.984c-.624.64-.936 1.504-.936 2.592s.312 1.96.936 2.616c.624.64 1.416.96 2.376.96z" fill="#fff"/></svg>